<svg xmlns="http://www.w3.org/2000/svg" viewBox="0 0 524.73 298.14"><defs><style>.cls-1{fill:#fff;stroke:#706f6f;}.cls-1,.cls-2,.cls-3{stroke-miterlimit:10;stroke-width:0.5px;}.cls-2{fill:#878787;stroke:#575756;}.cls-3{fill:#063;stroke:#063;}</style></defs><g id="Capa_2" data-name="Capa 2"><g id="Capa_1-2" data-name="Capa 1"><rect class="cls-1" x="0.25" y="0.25" width="524.23" height="297.64"/><path class="cls-2" d="M304.5,31.37h17.69a2.93,2.93,0,0,1,2.93,2.93v13a0,0,0,0,1,0,0H301.56a0,0,0,0,1,0,0v-13A2.93,2.93,0,0,1,304.5,31.37Z"/><path class="cls-3" d="M441.48,179h-218a4.72,4.72,0,0,1-3.9-2.19L139.74,55.68c-2.3-3.51,0-8.42,3.9-8.42H342.11c13.83,0,26.82,7.3,34.93,19.62l68.34,103.71C447.69,174.1,445.42,179,441.48,179Z"/><path class="cls-3" d="M389,253.2a2.39,2.39,0,0,1-.2.33,2.56,2.56,0,0,1-.23.27l-20.89,18.32a2.15,2.15,0,0,1-2.76,0l-.66-.58a1.65,1.65,0,0,1-.57-1.2v0a.4.4,0,0,1,0-.18v-14H133.48c-3,0-5.44-2.14-5.44-4.77V88.73H72.46A5.5,5.5,0,0,1,67,83.16V64A16.56,16.56,0,0,1,83.37,47.26h79.69a5.51,5.51,0,0,1,5.4,5.58V249H363.69v-14c0-.11,0-.23,0-.34v0a1.6,1.6,0,0,1,.6-1.05l.6-.56a2.15,2.15,0,0,1,2.8,0l19.91,17.48a.39.39,0,0,0,.1.08l.87.77a1.74,1.74,0,0,1,.23.25,1.27,1.27,0,0,1,.3.62A1.44,1.44,0,0,1,389,253.2Z"/></g></g></svg>